<svg xmlns="http://www.w3.org/2000/svg" width="137" height="30.07" viewBox="0 0 137 30.07"><defs><style>.a{fill:#303030;font-size:16px;font-family:Quicksand-Bold, Quicksand;font-weight:700;}.b,.c{fill:#ff9604;}.d,.e{fill:none;}.e{stroke:#303030;}.f,.g{stroke:none;}.g{fill:#303030;}</style></defs><g transform="translate(0 0.07)"><text class="a" transform="translate(26 21)"><tspan x="0" y="0">Shake Heaven</tspan></text><g transform="translate(-192 -115.345)"><g class="b" transform="translate(194.25 126.652)"><path class="f" d="M 11.90354061126709 18.19341659545898 L 1.595757007598877 18.19341659545898 L 0.5309954285621643 0.4999963939189911 L 12.96830272674561 0.4999963939189911 L 11.90354061126709 18.19341659545898 Z"/><path class="g" d="M 1.061982154846191 0.9999961853027344 L 2.06656551361084 17.69341659545898 L 11.43273258209229 17.69341659545898 L 12.43731594085693 0.9999961853027344 L 1.061982154846191 0.9999961853027344 M -9.5367431640625e-07 -3.814697265625e-06 L 13.49929904937744 -3.814697265625e-06 L 12.37435913085938 18.69341659545898 L 1.12493896484375 18.69341659545898 L -9.5367431640625e-07 -3.814697265625e-06 Z"/></g><path class="c" d="M194.221,126.577c.06-.062.3-4.679,3.781-3.868s2.461,3.244,4.261,1.684,2.281-3.681,3.961-2a7.04,7.04,0,0,1,1.8,4.18l-5.761,1.061S194.161,126.64,194.221,126.577Z" transform="translate(-0.275 0.764)"/><g class="d" transform="translate(192 117.28)"><path class="f" d="M17.99,10.525H.01C0,10.357,0,10.2,0,10.046,0,4.507,4.037,0,9,0s9,4.507,9,10.046c0,.16,0,.321-.01.478Z"/><path class="g" d="M 16.98687744140625 9.525177001953125 C 16.74711227416992 4.778733730316162 13.25646018981934 0.999997079372406 9.000120162963867 0.999997079372406 C 4.743654727935791 0.999997079372406 1.252896189689636 4.778733730316162 1.013122200965881 9.525177001953125 L 16.98687744140625 9.525177001953125 M 17.98990058898926 10.52517700195312 L 0.01032999996095896 10.52517700195312 C 0.003169999923557043 10.35712718963623 0 10.1963472366333 0 10.04640674591064 C 0 4.506796836853027 4.037429809570312 -2.929534957729629e-06 9.000120162963867 -2.929534957729629e-06 C 13.96245002746582 -2.929534957729629e-06 18 4.506796836853027 18 10.04640674591064 C 18 10.20644664764404 17.99636077880859 10.36721706390381 17.98990058898926 10.52426719665527 L 17.98990058898926 10.52517700195312 Z"/></g><path class="e" d="M208.835,115.345c.219,1.554-8.334,28.41-8.334,28.41" transform="translate(-3.077 0)"/></g></g></svg>